<?xml version="1.0" encoding="utf-8"?>
<svg version="1.1" id="Layer_1" xmlns="http://www.w3.org/2000/svg" xmlns:xlink="http://www.w3.org/1999/xlink" x="0px" y="0px"
	 viewBox="70 60 200.16 220.16" xml:space="preserve">
<style type="text/css">
	.st0{fill-rule:evenodd;clip-rule:evenodd;fill:#575756;}
	.st1{clip-path:url(#SVGID_2_);}
	.st2{fill:#9D9D9C;}
	.st3{clip-path:url(#SVGID_4_);}
	.st4{clip-path:url(#SVGID_6_);}
	
		.st5{clip-path:url(#SVGID_8_);fill-rule:evenodd;clip-rule:evenodd;fill:none;stroke:#FFFFFF;stroke-width:3.1911;stroke-miterlimit:10;}
	
		.st6{clip-path:url(#SVGID_10_);fill-rule:evenodd;clip-rule:evenodd;fill:none;stroke:#FFFFFF;stroke-width:3.1911;stroke-miterlimit:10;}
	.st7{fill-rule:evenodd;clip-rule:evenodd;fill:none;}
	.st8{fill-rule:evenodd;clip-rule:evenodd;fill:none;stroke:#000000;stroke-width:0.5;stroke-miterlimit:10;}
	.st9{fill-rule:evenodd;clip-rule:evenodd;stroke:#000000;stroke-width:0.5;stroke-miterlimit:10;}
	.st10{fill-rule:evenodd;clip-rule:evenodd;fill:#EFF6F7;stroke:#000000;stroke-width:0.5;stroke-miterlimit:10;}
	
		.st11{fill-rule:evenodd;clip-rule:evenodd;fill:none;stroke:#000000;stroke-width:0.707;stroke-linejoin:round;stroke-miterlimit:10;}
	.st12{fill-rule:evenodd;clip-rule:evenodd;fill:#989595;stroke:#000000;stroke-width:0.5;stroke-miterlimit:10;}
	.st13{fill-rule:evenodd;clip-rule:evenodd;fill:#E3E2E3;stroke:#000000;stroke-width:0.5;stroke-miterlimit:10;}
	.st14{fill-rule:evenodd;clip-rule:evenodd;fill:#312C86;}
	.st15{fill-rule:evenodd;clip-rule:evenodd;fill:#989595;}
	.st16{fill-rule:evenodd;clip-rule:evenodd;fill:#FFFFFF;stroke:#000000;stroke-width:0.5;stroke-miterlimit:10;}
	.st17{fill-rule:evenodd;clip-rule:evenodd;fill:#4E5251;stroke:#000000;stroke-width:0.5;stroke-miterlimit:10;}
	.st18{fill-rule:evenodd;clip-rule:evenodd;fill:#FEE600;stroke:#000000;stroke-width:0.5;stroke-miterlimit:10;}
	.st19{fill-rule:evenodd;clip-rule:evenodd;fill:#E40F1B;stroke:#000000;stroke-width:0.5;stroke-miterlimit:10;}
	.st20{fill-rule:evenodd;clip-rule:evenodd;}
	.st21{fill:#575756;}
	.st22{fill:#FFFFFF;}
	
		.st23{clip-path:url(#SVGID_14_);fill-rule:evenodd;clip-rule:evenodd;fill:none;stroke:#FFFFFF;stroke-width:3.1911;stroke-miterlimit:10;}
	
		.st24{clip-path:url(#SVGID_16_);fill-rule:evenodd;clip-rule:evenodd;fill:none;stroke:#FFFFFF;stroke-width:3.1911;stroke-miterlimit:10;}
	.st25{fill-rule:evenodd;clip-rule:evenodd;fill:#9D9D9C;}
	
		.st26{clip-path:url(#SVGID_18_);fill-rule:evenodd;clip-rule:evenodd;fill:none;stroke:#FFFFFF;stroke-width:3.1911;stroke-miterlimit:10;}
	
		.st27{clip-path:url(#SVGID_20_);fill-rule:evenodd;clip-rule:evenodd;fill:none;stroke:#FFFFFF;stroke-width:3.1911;stroke-miterlimit:10;}
	.st28{fill-rule:evenodd;clip-rule:evenodd;fill:#FFFFFF;}
	.st29{fill:#87CFEC;}
	.st30{clip-path:url(#SVGID_22_);}
	.st31{fill:#87CFEC;stroke:#FFFFFF;stroke-width:5;stroke-miterlimit:10;}
	.st32{clip-path:url(#SVGID_24_);}
	.st33{clip-path:url(#SVGID_26_);}
	
		.st34{clip-path:url(#SVGID_28_);fill-rule:evenodd;clip-rule:evenodd;fill:none;stroke:#FFFFFF;stroke-width:3.1911;stroke-miterlimit:10;}
	
		.st35{clip-path:url(#SVGID_30_);fill-rule:evenodd;clip-rule:evenodd;fill:none;stroke:#FFFFFF;stroke-width:3.1911;stroke-miterlimit:10;}
	.st36{opacity:0.6;fill:#FFFFFF;}
	.st37{fill:#0081C5;}
	.st38{fill-rule:evenodd;clip-rule:evenodd;fill:#6E655F;stroke:#000000;stroke-width:0.5;stroke-miterlimit:10;}
	
		.st39{clip-path:url(#SVGID_32_);fill-rule:evenodd;clip-rule:evenodd;fill:none;stroke:#FFFFFF;stroke-width:3.1911;stroke-miterlimit:10;}
	.st40{clip-path:url(#SVGID_32_);}
	.st41{clip-path:url(#SVGID_34_);}
	
		.st42{clip-path:url(#SVGID_36_);fill-rule:evenodd;clip-rule:evenodd;fill:none;stroke:#C0C0BF;stroke-width:4;stroke-miterlimit:10;}
	
		.st43{clip-path:url(#SVGID_36_);fill-rule:evenodd;clip-rule:evenodd;fill:none;stroke:#FFFFFF;stroke-width:3.1911;stroke-miterlimit:10;}
	.st44{clip-path:url(#SVGID_36_);}
	.st45{clip-path:url(#SVGID_38_);}
	.st46{fill-rule:evenodd;clip-rule:evenodd;fill:#6E655F;}
	.st47{clip-path:url(#SVGID_40_);}
	.st48{clip-path:url(#SVGID_42_);}
	.st49{clip-path:url(#SVGID_44_);}
	
		.st50{clip-path:url(#SVGID_46_);fill-rule:evenodd;clip-rule:evenodd;fill:none;stroke:#FFFFFF;stroke-width:3.1911;stroke-miterlimit:10;}
	
		.st51{clip-path:url(#SVGID_48_);fill-rule:evenodd;clip-rule:evenodd;fill:none;stroke:#FFFFFF;stroke-width:3.1911;stroke-miterlimit:10;}
	.st52{fill:#395499;}
	.st53{fill:url(#SVGID_49_);}
	.st54{clip-path:url(#SVGID_51_);}
	.st55{clip-path:url(#SVGID_53_);}
	.st56{clip-path:url(#SVGID_55_);}
	
		.st57{clip-path:url(#SVGID_57_);fill-rule:evenodd;clip-rule:evenodd;fill:none;stroke:#FFFFFF;stroke-width:3.1911;stroke-miterlimit:10;}
	
		.st58{clip-path:url(#SVGID_59_);fill-rule:evenodd;clip-rule:evenodd;fill:none;stroke:#FFFFFF;stroke-width:3.1911;stroke-miterlimit:10;}
	.st59{clip-path:url(#SVGID_61_);}
	.st60{fill:#9D9D9C;stroke:#87CFEC;stroke-width:5;stroke-miterlimit:10;}
	.st61{clip-path:url(#SVGID_63_);}
	.st62{clip-path:url(#SVGID_65_);}
	
		.st63{clip-path:url(#SVGID_67_);fill-rule:evenodd;clip-rule:evenodd;fill:none;stroke:#FFFFFF;stroke-width:3.1911;stroke-miterlimit:10;}
	
		.st64{clip-path:url(#SVGID_69_);fill-rule:evenodd;clip-rule:evenodd;fill:none;stroke:#FFFFFF;stroke-width:3.1911;stroke-miterlimit:10;}
	.st65{fill:url(#SVGID_70_);}
</style>
<g>
	<polygon class="st22" points="158.55,247.9 167.09,247.9 167.09,200.09 158.55,200.09 158.55,220.02 137.03,220.02 137.03,200.09 
		128.49,200.09 128.49,247.9 137.03,247.9 137.03,227.37 158.55,227.37 	"/>
	<polygon class="st22" points="216.02,200.09 176.63,200.09 176.63,207.44 192.06,207.44 192.05,247.9 200.6,247.9 200.6,207.44 
		216.02,207.44 	"/>
	<path class="st22" d="M249.2,200.09h-20.66v7.35h12.12v25.62c0,5.1-2.85,7.02-6.03,7.02s-6.22-1.85-6.22-7.42v-2.18h-8.47v2.71
		c0,10.13,7.35,14.7,14.57,14.7c7.28,0,14.7-4.44,14.7-14.7V200.09z"/>
	<path class="st22" d="M83.24,266.02c-0.25-0.32-0.56-0.58-0.91-0.8c-0.36-0.22-0.71-0.37-1.06-0.45s-0.65-0.13-0.9-0.16
		s-0.52-0.04-0.79-0.04h-2.75c-0.13,0-0.25,0.05-0.39,0.14c-0.13,0.09-0.2,0.27-0.2,0.52v12.65c0,0.04,0.01,0.08,0.03,0.12
		c0.02,0.03,0.06,0.06,0.1,0.08c0.05,0.02,0.11,0.04,0.2,0.05c0.08,0.01,0.18,0.02,0.3,0.02c0.13,0,0.23-0.01,0.31-0.02
		c0.08-0.01,0.14-0.03,0.19-0.05c0.05-0.02,0.08-0.05,0.1-0.08c0.02-0.04,0.03-0.07,0.03-0.12v-5.17h1.75c0.81,0,1.5-0.1,2.07-0.31
		s1.05-0.5,1.45-0.88c0.4-0.38,0.7-0.83,0.91-1.35c0.21-0.52,0.32-1.1,0.32-1.72c0-0.49-0.07-0.93-0.2-1.34
		C83.68,266.7,83.49,266.34,83.24,266.02z M82.46,269.78c-0.14,0.37-0.35,0.69-0.62,0.96c-0.27,0.26-0.61,0.47-1,0.62
		c-0.4,0.15-0.89,0.22-1.48,0.22h-1.84v-5.87h1.92c0.32,0,0.66,0.03,1.02,0.08c0.36,0.05,0.7,0.18,1.03,0.38s0.61,0.5,0.84,0.91
		c0.23,0.41,0.34,0.9,0.34,1.49C82.68,269,82.6,269.41,82.46,269.78z"/>
	<path class="st22" d="M96.43,277.16l-1.26-3.16c-0.14-0.35-0.28-0.66-0.42-0.95c-0.14-0.28-0.29-0.53-0.44-0.75
		c-0.16-0.22-0.33-0.4-0.51-0.55c-0.19-0.15-0.39-0.28-0.62-0.39c0.38-0.13,0.73-0.3,1.05-0.49c0.32-0.2,0.6-0.43,0.83-0.7
		c0.23-0.27,0.41-0.58,0.53-0.93c0.13-0.35,0.19-0.75,0.19-1.2c0-0.43-0.06-0.83-0.18-1.21c-0.12-0.37-0.31-0.71-0.56-1
		s-0.57-0.54-0.95-0.75c-0.38-0.2-0.83-0.35-1.35-0.44c-0.18-0.03-0.38-0.05-0.6-0.07c-0.22-0.02-0.5-0.03-0.83-0.03h-2.54
		c-0.13,0-0.25,0.05-0.39,0.14c-0.13,0.09-0.2,0.27-0.2,0.52v12.65c0,0.04,0.01,0.08,0.03,0.12c0.02,0.03,0.06,0.06,0.1,0.08
		c0.05,0.02,0.11,0.04,0.2,0.05c0.08,0.01,0.18,0.02,0.3,0.02c0.13,0,0.23-0.01,0.31-0.02c0.08-0.01,0.14-0.03,0.19-0.05
		c0.05-0.02,0.08-0.05,0.1-0.08c0.02-0.04,0.03-0.07,0.03-0.12v-6.09h1.4c0.47,0,0.87,0.07,1.2,0.21c0.33,0.14,0.62,0.33,0.86,0.57
		c0.24,0.24,0.44,0.52,0.61,0.85c0.17,0.33,0.32,0.68,0.47,1.04l1.26,3.28c0.03,0.08,0.06,0.15,0.09,0.2
		c0.04,0.05,0.08,0.09,0.14,0.12s0.12,0.05,0.2,0.06s0.18,0.02,0.3,0.02c0.13,0,0.24-0.01,0.33-0.02c0.09-0.01,0.15-0.03,0.2-0.06
		s0.08-0.05,0.1-0.09s0.03-0.08,0.03-0.12c0-0.04-0.01-0.11-0.04-0.2C96.58,277.57,96.52,277.41,96.43,277.16z M92.74,270.48
		c-0.38,0.13-0.83,0.19-1.35,0.19h-1.94v-4.96h1.67c0.38,0,0.69,0.01,0.93,0.04c0.24,0.02,0.46,0.06,0.66,0.12
		c0.61,0.17,1.04,0.46,1.3,0.86c0.26,0.4,0.39,0.89,0.39,1.47c0,0.35-0.06,0.67-0.17,0.97c-0.12,0.3-0.3,0.56-0.54,0.78
		C93.43,270.18,93.12,270.35,92.74,270.48z"/>
	<path class="st22" d="M109.91,266.21c-0.47-0.58-1.06-1.03-1.78-1.35c-0.72-0.31-1.57-0.47-2.55-0.47c-1.01,0-1.89,0.17-2.64,0.5
		c-0.75,0.33-1.37,0.81-1.87,1.42c-0.5,0.61-0.87,1.35-1.11,2.21c-0.24,0.86-0.37,1.83-0.37,2.88c0,1.07,0.11,2.02,0.33,2.87
		c0.22,0.85,0.56,1.57,1.02,2.16c0.46,0.59,1.06,1.04,1.78,1.36c0.72,0.32,1.58,0.48,2.59,0.48c1,0,1.88-0.17,2.63-0.5
		c0.75-0.33,1.38-0.81,1.87-1.43s0.87-1.36,1.11-2.24c0.25-0.87,0.37-1.85,0.37-2.93c0-1.05-0.11-2-0.34-2.83
		C110.73,267.51,110.38,266.8,109.91,266.21z M109.71,273.5c-0.15,0.7-0.41,1.32-0.76,1.85c-0.35,0.53-0.82,0.96-1.4,1.27
		c-0.58,0.32-1.29,0.48-2.14,0.48c-0.86,0-1.57-0.15-2.14-0.44c-0.57-0.3-1.03-0.71-1.37-1.23c-0.34-0.52-0.58-1.14-0.73-1.84
		s-0.21-1.47-0.21-2.29c0-0.77,0.08-1.51,0.23-2.2c0.16-0.7,0.42-1.31,0.77-1.83s0.83-0.94,1.4-1.25c0.58-0.31,1.28-0.46,2.12-0.46
		c0.84,0,1.55,0.15,2.12,0.44s1.03,0.7,1.37,1.22c0.34,0.52,0.59,1.13,0.74,1.83c0.15,0.7,0.22,1.45,0.22,2.25
		C109.94,272.06,109.86,272.8,109.71,273.5z"/>
	<path class="st22" d="M122.49,266.02c-0.25-0.32-0.56-0.58-0.91-0.8c-0.36-0.22-0.71-0.37-1.06-0.45s-0.65-0.13-0.9-0.16
		s-0.52-0.04-0.79-0.04h-2.75c-0.13,0-0.25,0.05-0.39,0.14c-0.13,0.09-0.2,0.27-0.2,0.52v12.65c0,0.04,0.01,0.08,0.03,0.12
		c0.02,0.03,0.06,0.06,0.1,0.08c0.05,0.02,0.11,0.04,0.2,0.05c0.08,0.01,0.18,0.02,0.3,0.02c0.13,0,0.23-0.01,0.31-0.02
		c0.08-0.01,0.14-0.03,0.19-0.05c0.05-0.02,0.08-0.05,0.1-0.08c0.02-0.04,0.03-0.07,0.03-0.12v-5.17h1.75c0.81,0,1.5-0.1,2.07-0.31
		s1.05-0.5,1.45-0.88c0.4-0.38,0.7-0.83,0.91-1.35c0.21-0.52,0.32-1.1,0.32-1.72c0-0.49-0.07-0.93-0.2-1.34
		C122.94,266.7,122.74,266.34,122.49,266.02z M121.71,269.78c-0.14,0.37-0.35,0.69-0.62,0.96c-0.27,0.26-0.61,0.47-1,0.62
		c-0.4,0.15-0.89,0.22-1.48,0.22h-1.84v-5.87h1.92c0.32,0,0.66,0.03,1.02,0.08c0.36,0.05,0.7,0.18,1.03,0.38s0.61,0.5,0.84,0.91
		c0.23,0.41,0.34,0.9,0.34,1.49C121.93,269,121.86,269.41,121.71,269.78z"/>
	<path class="st22" d="M134.59,277.09c-0.03-0.04-0.07-0.08-0.11-0.1c-0.04-0.02-0.09-0.04-0.14-0.04h-5.64v-5.39h4.79
		c0.06,0,0.1-0.01,0.15-0.03c0.04-0.02,0.08-0.05,0.1-0.09c0.03-0.04,0.05-0.1,0.06-0.16c0.01-0.07,0.02-0.14,0.02-0.24
		c0-0.1-0.01-0.18-0.02-0.26c-0.01-0.07-0.04-0.13-0.06-0.18c-0.03-0.04-0.06-0.08-0.1-0.1c-0.04-0.02-0.09-0.04-0.15-0.04h-4.79
		v-4.75h5.55c0.05,0,0.09-0.01,0.14-0.04c0.04-0.02,0.08-0.06,0.1-0.1c0.03-0.04,0.05-0.1,0.06-0.17c0.01-0.07,0.02-0.15,0.02-0.24
		c0-0.1-0.01-0.18-0.02-0.26c-0.01-0.07-0.04-0.13-0.06-0.18c-0.03-0.05-0.06-0.08-0.1-0.11c-0.04-0.02-0.09-0.04-0.14-0.04h-6.24
		c-0.12,0-0.25,0.05-0.39,0.14c-0.13,0.09-0.2,0.27-0.2,0.52v12.2c0,0.25,0.07,0.42,0.2,0.52c0.13,0.09,0.26,0.14,0.39,0.14h6.33
		c0.05,0,0.09-0.01,0.14-0.04s0.08-0.06,0.11-0.11c0.03-0.05,0.05-0.11,0.07-0.18c0.01-0.07,0.02-0.15,0.02-0.24
		c0-0.1-0.01-0.18-0.02-0.26C134.64,277.2,134.62,277.14,134.59,277.09z"/>
	<path class="st22" d="M147.21,277.16l-1.26-3.16c-0.14-0.35-0.28-0.66-0.42-0.95c-0.14-0.28-0.29-0.53-0.44-0.75
		c-0.16-0.22-0.33-0.4-0.51-0.55c-0.19-0.15-0.39-0.28-0.62-0.39c0.38-0.13,0.73-0.3,1.05-0.49c0.32-0.2,0.6-0.43,0.83-0.7
		c0.23-0.27,0.41-0.58,0.53-0.93c0.13-0.35,0.19-0.75,0.19-1.2c0-0.43-0.06-0.83-0.18-1.21c-0.12-0.37-0.31-0.71-0.56-1
		s-0.57-0.54-0.95-0.75c-0.38-0.2-0.83-0.35-1.35-0.44c-0.18-0.03-0.38-0.05-0.6-0.07c-0.22-0.02-0.5-0.03-0.83-0.03h-2.54
		c-0.13,0-0.25,0.05-0.39,0.14c-0.13,0.09-0.2,0.27-0.2,0.52v12.65c0,0.04,0.01,0.08,0.03,0.12c0.02,0.03,0.06,0.06,0.1,0.08
		c0.05,0.02,0.11,0.04,0.2,0.05c0.08,0.01,0.18,0.02,0.3,0.02c0.13,0,0.23-0.01,0.31-0.02c0.08-0.01,0.14-0.03,0.19-0.05
		c0.05-0.02,0.08-0.05,0.1-0.08c0.02-0.04,0.03-0.07,0.03-0.12v-6.09h1.4c0.47,0,0.87,0.07,1.2,0.21c0.33,0.14,0.62,0.33,0.86,0.57
		c0.24,0.24,0.44,0.52,0.61,0.85c0.17,0.33,0.32,0.68,0.47,1.04l1.26,3.28c0.03,0.08,0.06,0.15,0.09,0.2
		c0.04,0.05,0.08,0.09,0.14,0.12s0.12,0.05,0.2,0.06s0.18,0.02,0.3,0.02c0.13,0,0.24-0.01,0.33-0.02c0.09-0.01,0.15-0.03,0.2-0.06
		s0.08-0.05,0.1-0.09s0.03-0.08,0.03-0.12c0-0.04-0.01-0.11-0.04-0.2C147.35,277.57,147.3,277.41,147.21,277.16z M143.52,270.48
		c-0.38,0.13-0.83,0.19-1.35,0.19h-1.94v-4.96h1.67c0.38,0,0.69,0.01,0.93,0.04c0.24,0.02,0.46,0.06,0.66,0.12
		c0.61,0.17,1.04,0.46,1.3,0.86c0.26,0.4,0.39,0.89,0.39,1.47c0,0.35-0.06,0.67-0.17,0.97c-0.12,0.3-0.3,0.56-0.54,0.78
		C144.21,270.18,143.89,270.35,143.52,270.48z"/>
	<path class="st22" d="M159.31,264.72c-0.03-0.05-0.06-0.08-0.1-0.11s-0.09-0.04-0.14-0.04h-9.34c-0.06,0-0.1,0.01-0.14,0.04
		c-0.04,0.02-0.07,0.06-0.1,0.11c-0.03,0.05-0.05,0.11-0.06,0.18s-0.02,0.16-0.02,0.26c0,0.09,0.01,0.17,0.02,0.24
		c0.01,0.07,0.04,0.13,0.06,0.17c0.03,0.04,0.06,0.08,0.1,0.1c0.04,0.02,0.08,0.04,0.14,0.04h4.03v12.17c0,0.04,0.01,0.08,0.03,0.12
		c0.02,0.03,0.06,0.06,0.1,0.08c0.05,0.02,0.11,0.04,0.2,0.05c0.08,0.01,0.18,0.02,0.3,0.02s0.22-0.01,0.3-0.02
		c0.08-0.01,0.15-0.03,0.2-0.05c0.05-0.02,0.08-0.05,0.1-0.08c0.02-0.04,0.03-0.07,0.03-0.12v-12.17h4.03
		c0.05,0,0.09-0.01,0.14-0.04s0.08-0.06,0.1-0.1c0.03-0.04,0.05-0.1,0.06-0.17c0.01-0.07,0.02-0.15,0.02-0.24
		c0-0.1-0.01-0.18-0.02-0.26S159.33,264.77,159.31,264.72z"/>
	<path class="st22" d="M170,264.53c-0.1-0.01-0.24-0.02-0.41-0.02c-0.12,0-0.22,0.01-0.3,0.02c-0.08,0.01-0.14,0.03-0.19,0.05
		c-0.05,0.02-0.09,0.05-0.12,0.08c-0.03,0.04-0.05,0.08-0.07,0.12l-2.09,4.24c-0.2,0.41-0.39,0.83-0.58,1.24
		c-0.19,0.42-0.37,0.83-0.55,1.24h-0.02c-0.2-0.43-0.39-0.86-0.58-1.29s-0.38-0.84-0.58-1.23l-2.07-4.21
		c-0.03-0.05-0.06-0.09-0.08-0.12c-0.03-0.04-0.07-0.06-0.13-0.08c-0.06-0.02-0.14-0.04-0.23-0.05c-0.09-0.01-0.22-0.02-0.37-0.02
		c-0.14,0-0.25,0.01-0.34,0.02c-0.09,0.01-0.16,0.04-0.19,0.07c-0.04,0.04-0.05,0.08-0.05,0.15s0.04,0.15,0.08,0.25l3.89,7.76v5.12
		c0,0.04,0.01,0.08,0.03,0.12c0.02,0.03,0.06,0.06,0.11,0.08c0.05,0.02,0.12,0.04,0.2,0.05c0.08,0.01,0.18,0.02,0.31,0.02
		c0.12,0,0.22-0.01,0.3-0.02c0.08-0.01,0.15-0.03,0.2-0.05c0.05-0.02,0.08-0.05,0.1-0.08c0.02-0.04,0.03-0.07,0.03-0.12v-5.12
		l3.89-7.76c0.05-0.1,0.08-0.18,0.08-0.24s-0.01-0.11-0.05-0.15C170.18,264.57,170.1,264.55,170,264.53z"/>
	<path class="st22" d="M185.48,272.05c-0.3-0.29-0.64-0.54-1.02-0.75c-0.38-0.21-0.77-0.41-1.16-0.6c-0.39-0.18-0.78-0.37-1.16-0.55
		c-0.38-0.18-0.72-0.39-1.02-0.62c-0.3-0.23-0.54-0.49-0.72-0.79c-0.18-0.3-0.27-0.66-0.27-1.08c0-0.29,0.05-0.56,0.15-0.81
		s0.25-0.48,0.46-0.67c0.2-0.19,0.46-0.34,0.76-0.46c0.31-0.11,0.67-0.17,1.08-0.17c0.42,0,0.79,0.05,1.12,0.15
		c0.33,0.1,0.61,0.21,0.85,0.34c0.24,0.12,0.43,0.24,0.59,0.34c0.16,0.1,0.27,0.15,0.35,0.15c0.04,0,0.08-0.01,0.11-0.04
		c0.03-0.03,0.06-0.07,0.08-0.12c0.02-0.05,0.04-0.12,0.05-0.19c0.01-0.07,0.02-0.15,0.02-0.25c0-0.1,0-0.18-0.01-0.25
		c-0.01-0.07-0.02-0.12-0.03-0.17s-0.03-0.09-0.05-0.12s-0.06-0.08-0.12-0.15c-0.07-0.07-0.2-0.15-0.41-0.26
		c-0.21-0.11-0.44-0.21-0.7-0.29c-0.26-0.09-0.54-0.16-0.83-0.21c-0.29-0.06-0.58-0.08-0.87-0.08c-0.57,0-1.09,0.08-1.57,0.23
		c-0.48,0.15-0.89,0.37-1.23,0.66c-0.34,0.29-0.61,0.64-0.79,1.06c-0.19,0.41-0.28,0.88-0.28,1.4c0,0.54,0.09,1,0.27,1.39
		c0.18,0.39,0.42,0.73,0.71,1.02c0.3,0.29,0.63,0.54,1.01,0.76s0.76,0.42,1.15,0.6s0.78,0.37,1.15,0.55s0.71,0.39,1.01,0.62
		s0.54,0.49,0.72,0.79c0.18,0.3,0.27,0.66,0.27,1.08c0,0.4-0.07,0.76-0.21,1.08c-0.14,0.32-0.34,0.58-0.6,0.8s-0.56,0.38-0.92,0.5
		c-0.35,0.12-0.75,0.17-1.17,0.17c-0.52,0-0.98-0.06-1.37-0.18c-0.39-0.12-0.73-0.25-1.01-0.4s-0.51-0.28-0.69-0.4
		c-0.18-0.12-0.32-0.18-0.41-0.18c-0.04,0-0.08,0.01-0.12,0.03s-0.07,0.05-0.09,0.1s-0.04,0.11-0.06,0.19
		c-0.01,0.08-0.02,0.17-0.02,0.29c0,0.16,0.02,0.29,0.05,0.4c0.04,0.11,0.09,0.2,0.17,0.28c0.08,0.08,0.22,0.18,0.42,0.29
		c0.21,0.12,0.46,0.23,0.76,0.34c0.3,0.11,0.64,0.21,1.02,0.29c0.38,0.08,0.79,0.12,1.22,0.12c0.63,0,1.22-0.09,1.75-0.26
		c0.54-0.17,1-0.43,1.39-0.76s0.69-0.73,0.91-1.21s0.32-1.01,0.32-1.61c0-0.53-0.09-0.99-0.27-1.37
		C186.02,272.67,185.78,272.34,185.48,272.05z"/>
	<path class="st22" d="M197.54,277.09c-0.03-0.04-0.07-0.08-0.11-0.1c-0.04-0.02-0.09-0.04-0.14-0.04h-5.64v-5.39h4.78
		c0.06,0,0.1-0.01,0.15-0.03s0.08-0.05,0.1-0.09c0.03-0.04,0.05-0.1,0.06-0.16s0.02-0.14,0.02-0.24c0-0.1-0.01-0.18-0.02-0.26
		s-0.04-0.13-0.06-0.18c-0.03-0.04-0.06-0.08-0.1-0.1s-0.09-0.04-0.15-0.04h-4.78v-4.75h5.55c0.05,0,0.09-0.01,0.14-0.04
		s0.08-0.06,0.1-0.1c0.03-0.04,0.05-0.1,0.06-0.17c0.01-0.07,0.02-0.15,0.02-0.24c0-0.1-0.01-0.18-0.02-0.26
		c-0.01-0.07-0.03-0.13-0.06-0.18c-0.03-0.05-0.06-0.08-0.1-0.11s-0.09-0.04-0.14-0.04h-6.24c-0.13,0-0.25,0.05-0.39,0.14
		c-0.13,0.09-0.2,0.27-0.2,0.52v12.2c0,0.25,0.07,0.42,0.2,0.52c0.13,0.09,0.26,0.14,0.39,0.14h6.33c0.05,0,0.09-0.01,0.14-0.04
		c0.04-0.02,0.08-0.06,0.11-0.11s0.05-0.11,0.07-0.18c0.01-0.07,0.02-0.15,0.02-0.24c0-0.1-0.01-0.18-0.02-0.26
		S197.58,277.14,197.54,277.09z"/>
	<path class="st22" d="M210.16,277.16l-1.26-3.16c-0.14-0.35-0.28-0.66-0.42-0.95c-0.14-0.28-0.29-0.53-0.44-0.75
		c-0.16-0.22-0.33-0.4-0.51-0.55c-0.19-0.15-0.39-0.28-0.62-0.39c0.38-0.13,0.73-0.3,1.05-0.49c0.32-0.2,0.6-0.43,0.83-0.7
		c0.23-0.27,0.41-0.58,0.53-0.93c0.13-0.35,0.19-0.75,0.19-1.2c0-0.43-0.06-0.83-0.18-1.21c-0.12-0.37-0.31-0.71-0.56-1
		s-0.57-0.54-0.95-0.75c-0.38-0.2-0.83-0.35-1.35-0.44c-0.18-0.03-0.38-0.05-0.6-0.07c-0.22-0.02-0.5-0.03-0.83-0.03h-2.54
		c-0.13,0-0.25,0.05-0.39,0.14c-0.13,0.09-0.2,0.27-0.2,0.52v12.65c0,0.04,0.01,0.08,0.03,0.12c0.02,0.03,0.06,0.06,0.1,0.08
		c0.05,0.02,0.11,0.04,0.2,0.05c0.08,0.01,0.18,0.02,0.3,0.02c0.13,0,0.23-0.01,0.31-0.02c0.08-0.01,0.14-0.03,0.19-0.05
		c0.05-0.02,0.08-0.05,0.1-0.08c0.02-0.04,0.03-0.07,0.03-0.12v-6.09h1.4c0.47,0,0.87,0.07,1.2,0.21c0.33,0.14,0.62,0.33,0.86,0.57
		c0.24,0.24,0.44,0.52,0.61,0.85c0.17,0.33,0.32,0.68,0.47,1.04l1.26,3.28c0.03,0.08,0.06,0.15,0.09,0.2
		c0.04,0.05,0.08,0.09,0.14,0.12c0.06,0.03,0.12,0.05,0.2,0.06s0.18,0.02,0.3,0.02c0.13,0,0.24-0.01,0.33-0.02
		c0.09-0.01,0.15-0.03,0.2-0.06s0.08-0.05,0.1-0.09s0.03-0.08,0.03-0.12c0-0.04-0.01-0.11-0.04-0.2
		C210.31,277.57,210.25,277.41,210.16,277.16z M206.47,270.48c-0.38,0.13-0.83,0.19-1.35,0.19h-1.94v-4.96h1.67
		c0.38,0,0.69,0.01,0.93,0.04c0.24,0.02,0.46,0.06,0.66,0.12c0.61,0.17,1.04,0.46,1.3,0.86c0.26,0.4,0.39,0.89,0.39,1.47
		c0,0.35-0.06,0.67-0.17,0.97c-0.12,0.3-0.3,0.56-0.54,0.78C207.16,270.18,206.85,270.35,206.47,270.48z"/>
	<path class="st22" d="M223.26,264.53c-0.09-0.01-0.22-0.02-0.38-0.02c-0.15,0-0.26,0.01-0.35,0.02c-0.09,0.01-0.16,0.03-0.21,0.05
		c-0.05,0.02-0.09,0.05-0.11,0.08c-0.02,0.04-0.04,0.08-0.05,0.12l-4.07,11.9h-0.01l-4.2-11.9c-0.02-0.05-0.04-0.09-0.07-0.12
		s-0.06-0.06-0.1-0.08c-0.04-0.02-0.11-0.04-0.19-0.05c-0.08-0.01-0.19-0.02-0.32-0.02c-0.16,0-0.29,0.01-0.39,0.02
		c-0.1,0.01-0.17,0.03-0.22,0.07s-0.08,0.08-0.08,0.15c0,0.07,0.02,0.15,0.06,0.26l4.63,12.86c0.01,0.04,0.03,0.08,0.05,0.1
		c0.02,0.03,0.05,0.05,0.08,0.07c0.04,0.02,0.07,0.04,0.12,0.05s0.09,0.03,0.15,0.04c0.06,0.01,0.12,0.02,0.19,0.02
		c0.07,0,0.15,0,0.23,0c0.12,0,0.22,0,0.32-0.02s0.17-0.03,0.24-0.05s0.12-0.05,0.16-0.09s0.07-0.08,0.09-0.14l4.63-12.86
		c0.04-0.1,0.06-0.19,0.07-0.25c0-0.06-0.01-0.11-0.05-0.15C223.42,264.57,223.36,264.55,223.26,264.53z"/>
	<path class="st22" d="M228.12,264.58c-0.05-0.02-0.11-0.04-0.19-0.05c-0.08-0.01-0.18-0.02-0.31-0.02c-0.11,0-0.21,0.01-0.29,0.02
		c-0.08,0.01-0.15,0.03-0.2,0.05c-0.05,0.02-0.09,0.05-0.12,0.08c-0.02,0.03-0.04,0.07-0.04,0.11v13.1c0,0.04,0.01,0.08,0.03,0.12
		c0.02,0.03,0.06,0.06,0.1,0.08c0.05,0.02,0.11,0.04,0.2,0.05c0.08,0.01,0.18,0.02,0.3,0.02c0.13,0,0.23-0.01,0.31-0.02
		c0.08-0.01,0.14-0.03,0.19-0.05c0.05-0.02,0.08-0.05,0.1-0.08c0.02-0.04,0.03-0.07,0.03-0.12v-13.1c0-0.04-0.01-0.08-0.03-0.11
		C228.2,264.63,228.17,264.6,228.12,264.58z"/>
	<path class="st22" d="M242.06,275.79c-0.02-0.04-0.04-0.08-0.07-0.09c-0.03-0.02-0.06-0.03-0.1-0.03c-0.1,0-0.25,0.07-0.44,0.21
		c-0.19,0.14-0.44,0.3-0.74,0.48c-0.3,0.17-0.66,0.33-1.08,0.48c-0.42,0.14-0.91,0.21-1.48,0.21c-0.69,0-1.31-0.12-1.85-0.38
		s-1-0.61-1.37-1.09c-0.37-0.48-0.65-1.06-0.85-1.76s-0.29-1.49-0.29-2.39c0-0.94,0.11-1.77,0.32-2.5c0.21-0.72,0.51-1.33,0.89-1.83
		c0.38-0.49,0.83-0.87,1.36-1.12c0.53-0.25,1.11-0.38,1.75-0.38c0.58,0,1.08,0.07,1.49,0.21s0.77,0.3,1.06,0.48s0.52,0.33,0.7,0.48
		c0.18,0.14,0.31,0.21,0.41,0.21c0.05,0,0.09-0.01,0.13-0.04c0.03-0.03,0.06-0.07,0.09-0.12c0.02-0.05,0.04-0.12,0.05-0.19
		c0.01-0.07,0.02-0.16,0.02-0.26c0-0.08,0-0.16-0.01-0.22c-0.01-0.07-0.02-0.12-0.03-0.18c-0.01-0.05-0.03-0.1-0.06-0.14
		c-0.02-0.04-0.08-0.11-0.18-0.2c-0.09-0.09-0.27-0.22-0.52-0.37c-0.25-0.15-0.54-0.29-0.86-0.41c-0.32-0.12-0.67-0.22-1.05-0.29
		c-0.38-0.08-0.77-0.12-1.17-0.12c-0.86,0-1.64,0.16-2.35,0.49c-0.71,0.32-1.31,0.79-1.82,1.4s-0.9,1.35-1.18,2.23
		s-0.42,1.86-0.42,2.96c0,1.07,0.13,2.03,0.39,2.86c0.26,0.83,0.63,1.54,1.12,2.11c0.48,0.57,1.07,1,1.76,1.3
		c0.69,0.3,1.46,0.44,2.31,0.44c0.53,0,1.01-0.05,1.45-0.16s0.83-0.23,1.17-0.38c0.34-0.15,0.62-0.29,0.84-0.44
		c0.22-0.15,0.37-0.26,0.43-0.32c0.07-0.07,0.11-0.12,0.14-0.16c0.02-0.04,0.04-0.09,0.06-0.14c0.01-0.05,0.02-0.1,0.03-0.17
		s0.01-0.13,0.01-0.21c0-0.11,0-0.21-0.02-0.28C242.1,275.89,242.08,275.83,242.06,275.79z"/>
	<path class="st22" d="M252.95,277.09c-0.03-0.04-0.07-0.08-0.11-0.1c-0.04-0.02-0.09-0.04-0.14-0.04h-5.64v-5.39h4.78
		c0.06,0,0.1-0.01,0.15-0.03s0.08-0.05,0.1-0.09c0.03-0.04,0.05-0.1,0.06-0.16s0.02-0.14,0.02-0.24c0-0.1-0.01-0.18-0.02-0.26
		s-0.04-0.13-0.06-0.18c-0.03-0.04-0.06-0.08-0.1-0.1s-0.09-0.04-0.15-0.04h-4.78v-4.75h5.55c0.05,0,0.09-0.01,0.14-0.04
		s0.08-0.06,0.1-0.1c0.03-0.04,0.05-0.1,0.06-0.17c0.01-0.07,0.02-0.15,0.02-0.24c0-0.1-0.01-0.18-0.02-0.26
		c-0.01-0.07-0.03-0.13-0.06-0.18c-0.03-0.05-0.06-0.08-0.1-0.11s-0.09-0.04-0.14-0.04h-6.24c-0.13,0-0.25,0.05-0.39,0.14
		c-0.13,0.09-0.2,0.27-0.2,0.52v12.2c0,0.25,0.07,0.42,0.2,0.52c0.13,0.09,0.26,0.14,0.39,0.14h6.33c0.05,0,0.09-0.01,0.14-0.04
		c0.04-0.02,0.08-0.06,0.11-0.11s0.05-0.11,0.07-0.18c0.01-0.07,0.02-0.15,0.02-0.24c0-0.1-0.01-0.18-0.02-0.26
		S252.99,277.14,252.95,277.09z"/>
	<path class="st22" d="M262.96,272.05c-0.3-0.29-0.64-0.54-1.02-0.75c-0.38-0.21-0.77-0.41-1.16-0.6c-0.39-0.18-0.78-0.37-1.16-0.55
		c-0.38-0.18-0.72-0.39-1.02-0.62c-0.3-0.23-0.54-0.49-0.72-0.79c-0.18-0.3-0.27-0.66-0.27-1.08c0-0.29,0.05-0.56,0.15-0.81
		c0.1-0.26,0.25-0.48,0.45-0.67s0.46-0.34,0.76-0.46c0.31-0.11,0.67-0.17,1.08-0.17c0.42,0,0.79,0.05,1.12,0.15
		c0.33,0.1,0.61,0.21,0.85,0.34c0.24,0.12,0.43,0.24,0.59,0.34c0.16,0.1,0.27,0.15,0.35,0.15c0.04,0,0.08-0.01,0.11-0.04
		c0.03-0.03,0.06-0.07,0.08-0.12c0.02-0.05,0.04-0.12,0.05-0.19c0.01-0.07,0.02-0.15,0.02-0.25c0-0.1,0-0.18-0.01-0.25
		s-0.02-0.12-0.03-0.17c-0.01-0.05-0.03-0.09-0.05-0.12c-0.02-0.03-0.06-0.08-0.13-0.15c-0.07-0.07-0.2-0.15-0.41-0.26
		c-0.21-0.11-0.44-0.21-0.7-0.29c-0.26-0.09-0.54-0.16-0.83-0.21c-0.29-0.06-0.58-0.08-0.87-0.08c-0.57,0-1.1,0.08-1.57,0.23
		c-0.48,0.15-0.89,0.37-1.23,0.66c-0.34,0.29-0.61,0.64-0.79,1.06c-0.19,0.41-0.28,0.88-0.28,1.4c0,0.54,0.09,1,0.27,1.39
		c0.18,0.39,0.42,0.73,0.72,1.02s0.63,0.54,1.01,0.76s0.76,0.42,1.15,0.6s0.78,0.37,1.15,0.55c0.38,0.18,0.71,0.39,1.01,0.62
		s0.53,0.49,0.72,0.79c0.18,0.3,0.27,0.66,0.27,1.08c0,0.4-0.07,0.76-0.21,1.08c-0.14,0.32-0.34,0.58-0.6,0.8s-0.56,0.38-0.92,0.5
		c-0.36,0.12-0.75,0.17-1.17,0.17c-0.52,0-0.98-0.06-1.37-0.18c-0.39-0.12-0.73-0.25-1.01-0.4c-0.28-0.14-0.51-0.28-0.69-0.4
		c-0.18-0.12-0.31-0.18-0.41-0.18c-0.04,0-0.08,0.01-0.12,0.03c-0.04,0.02-0.07,0.05-0.09,0.1s-0.04,0.11-0.06,0.19
		c-0.01,0.08-0.02,0.17-0.02,0.29c0,0.16,0.02,0.29,0.05,0.4c0.03,0.11,0.09,0.2,0.17,0.28c0.08,0.08,0.22,0.18,0.42,0.29
		s0.46,0.23,0.76,0.34c0.3,0.11,0.64,0.21,1.02,0.29s0.79,0.12,1.22,0.12c0.63,0,1.22-0.09,1.75-0.26c0.54-0.17,1-0.43,1.39-0.76
		c0.39-0.33,0.69-0.73,0.91-1.21s0.32-1.01,0.32-1.61c0-0.53-0.09-0.99-0.27-1.37C263.5,272.67,263.26,272.34,262.96,272.05z"/>
	<polygon class="st29" points="170.08,61.89 74.16,126.75 74.16,247.9 81.08,247.9 81.08,247.9 118.61,247.9 118.61,240.97 
		81.08,240.97 81.08,130.42 170.08,70.25 259.07,130.42 259.07,247.9 266,247.9 266,126.75 	"/>
</g>
</svg>
